<?xml version="1.0" encoding="utf-8"?>
<!-- Generator: Adobe Illustrator 17.1.0, SVG Export Plug-In . SVG Version: 6.00 Build 0)  -->
<!DOCTYPE svg PUBLIC "-//W3C//DTD SVG 1.1//EN" "http://www.w3.org/Graphics/SVG/1.1/DTD/svg11.dtd">
<svg version="1.1" id="Layer_1" xmlns="http://www.w3.org/2000/svg" xmlns:xlink="http://www.w3.org/1999/xlink" x="0px" y="0px"
	 enable-background="new 0 0 203 203" xml:space="preserve" width="203px" height="203px">
<circle fill="none" stroke="#262958" stroke-width="12" stroke-miterlimit="10" cx="101.5" cy="101.5" r="95.5"/>
<path fill="#262958" d="M144.4,134.5c0-2.1-1.3-3.3-3.7-3.3c-2.2,4.4-5.5,5.9-8.1,5.9c-3.5,0-4.2-2.4-3.3-8.9l10-70.4
	c-1.5-1-4.5-1.6-6.7-1.6c-4.5,0-8.3,2.3-10.5,7.8l-28.4,64l4.4-65.1h0.1c2.8,0,4.3-2.4,4.3-4.8c0-1.2-0.5-2.4-1.7-3.2
	c-5.3,2.9-15.6-2.4-25.8-2.4c-14.4,0-20.3,8.8-20.3,16.5c0,6.1,3.7,11.6,9.9,11.6c1.7,0,3.4-0.4,5.3-1.2c-1.5-1.7-2.4-4.4-2.4-7.1
	c0-5.7,4-12,15.2-12h0.6C65.4,120,53.1,135,43.4,138.7v-1.1c0-2.8,0.5-7.8,2.6-12.6c-1.7-1.3-3.9-2.1-6.1-2.1
	c-5.5,0-10.4,2.1-10.4,9.2c0,10.9,4.4,16.8,10.5,16.8c14.5,0,27.4-17.4,43.9-70.1l-0.6,14.3l-4.4,54.2c1.5,1,3.7,1.6,5.9,1.6
	c4.5,0,8.2-1.6,10.4-7.2l26.6-62.5l-7.9,52.3c-3.1,14.4,5.7,17.4,12.5,17.4C133.6,148.9,144.4,143.1,144.4,134.5z M190.5,130.5
	c-3.7,3.1-8.7,6.6-14.3,9.5v-0.1c0-7.1-4-13-11.4-15.3c12.2-3.4,20.2-12.4,20.2-24.5c0-8.1-6.4-14.9-16.9-14.9
	c-15.3,0-21,7.5-21,13.8c0,4.5,2.9,8.4,7.3,8.4c1.6,0,3.5-0.5,4.9-1.7c-1.3-2.9-2-6.2-2-7.9c0-1,0-1.7,0.2-2.4c1.6-0.6,3.3-1,4.9-1
	c4.5,0,8.1,2.8,8.1,8.7c0,7.6-6.6,17.6-14.5,17.6c-3.8,0-5.7,3.3-5.1,7.1c7.1,0,11.2,4.8,11.2,11.5c0,1.8-0.4,4.2-0.7,6.7
	c-16.4,6.5-35,18.3-35,33.9c0,5.8,2.3,9.9,5.6,12.3c2.5,1.8,5.9,0.9,8.9-0.5c10.1-4.7,10.1-4.7,19.9-12.4c1.7-1.3,5.4-3.2,6.4-5.7
	c3.6-8.1,6.9-18.7,8.2-26.8c7-3.9,13.3-8.6,15.2-10.1C192.7,134.8,192.3,132.1,190.5,130.5z M151.7,175.3c-3.3,5.6-7.2,8.8-12,8.8
	c-1.6,0-5-1.5-5-5.7c0-8.7,11.2-18.6,24.8-24C157.3,162.3,154.3,170.7,151.7,175.3z"/>
</svg>
