<?xml version="1.0" encoding="utf-8"?>
<!-- Generator: Adobe Illustrator 16.0.0, SVG Export Plug-In . SVG Version: 6.00 Build 0)  -->
<!DOCTYPE svg PUBLIC "-//W3C//DTD SVG 1.1//EN" "http://www.w3.org/Graphics/SVG/1.1/DTD/svg11.dtd">
<svg version="1.1" xmlns="http://www.w3.org/2000/svg" xmlns:xlink="http://www.w3.org/1999/xlink" x="0px" y="0px"
	 width="203.829px" height="203.95px" viewBox="0 0 203.829 203.95" enable-background="new 0 0 203.829 203.95"
	 xml:space="preserve">
<g id="Слой_1">
	<path fill-rule="evenodd" clip-rule="evenodd" fill="none" stroke="#262958" stroke-width="11" stroke-miterlimit="10" d="
		M101.914,5.5c53.249,0,96.415,43.193,96.415,96.476c0,53.281-43.166,96.475-96.415,96.475c-53.248,0-96.414-43.193-96.414-96.475
		C5.5,48.693,48.666,5.5,101.914,5.5z"/>
</g>
<g id="Слой_2">
	<g>
		<g>
			<path fill="#262958" d="M141.716,139.085c0-2.078-1.346-3.303-3.666-3.303c-2.201,4.402-5.5,5.869-8.067,5.869
				c-3.544,0-4.154-2.445-3.3-8.926l10.022-70.439c-1.467-0.978-4.522-1.589-6.723-1.589c-4.521,0-8.31,2.324-10.511,7.827
				L91.119,132.48l4.399-65.058h0.122c2.812,0,4.277-2.445,4.277-4.77c0-1.222-0.488-2.445-1.711-3.179
				c-5.255,2.935-15.644-2.446-25.787-2.446c-14.421,0-20.287,8.805-20.287,16.509c0,6.114,3.667,11.617,9.899,11.617
				c1.711,0,3.422-0.367,5.255-1.222c-1.467-1.712-2.444-4.402-2.444-7.093c0-5.748,4.033-11.984,15.154-11.984h0.611
				c-17.843,59.678-30.187,74.719-39.842,78.389v-1.102c0-2.812,0.489-7.827,2.567-12.596c-1.711-1.344-3.912-2.078-6.111-2.078
				c-5.5,0-10.388,2.078-10.388,9.171c0,10.885,4.399,16.755,10.51,16.755c14.543,0,27.376-17.367,43.875-70.073l-0.611,14.308
				l-4.4,54.175c1.466,0.979,3.667,1.591,5.867,1.591c4.522,0,8.188-1.591,10.387-7.215l26.643-62.492l-7.943,52.339
				c-3.055,14.433,5.744,17.367,12.465,17.367C130.961,153.394,141.716,147.646,141.716,139.085z M187.785,135.049
				c-3.666,3.057-8.676,6.603-14.299,9.54v-0.123c0-7.093-4.032-12.963-11.364-15.286c12.22-3.425,20.165-12.352,20.165-24.459
				c0-8.07-6.356-14.919-16.866-14.919c-15.277,0-21.021,7.459-21.021,13.819c0,4.524,2.933,8.437,7.333,8.437
				c1.588,0,3.544-0.487,4.888-1.711c-1.344-2.934-1.955-6.238-1.955-7.949c0-0.979,0-1.712,0.245-2.446
				c1.589-0.61,3.3-0.978,4.888-0.978c4.521,0,8.065,2.813,8.065,8.682c0,7.582-6.599,17.611-14.543,17.611
				c-3.788,0-5.744,3.302-5.132,7.093c7.088,0,11.243,4.769,11.243,11.495c0,1.833-0.366,4.157-0.733,6.726
				c-16.376,6.481-34.954,18.345-34.954,33.875c0,5.778,2.258,9.853,5.579,12.29c2.512,1.845,5.945,0.871,8.861-0.476
				c10.104-4.663,10.104-4.663,19.949-12.436c1.686-1.331,5.351-3.225,6.449-5.713c3.559-8.053,6.862-18.68,8.17-26.809
				c6.966-3.912,13.321-8.56,15.155-10.148C189.986,139.33,189.619,136.639,187.785,135.049z M149.044,179.809
				c-3.299,5.625-7.211,8.805-11.977,8.805c-1.589,0-5.011-1.468-5.011-5.749c0-8.682,11.244-18.587,24.81-23.97
				C154.666,166.844,151.611,175.282,149.044,179.809z"/>
		</g>
	</g>
</g>
<g id="Слой_3" display="none">
	<path display="inline" fill="#262958" d="M96.279,120.462c-2.877,0-5.511-1.063-7.538-2.82c-1.493,3.389-2.33,7.139-2.33,11.088
		c0,15.055,12.06,27.259,26.933,27.259s26.933-12.204,26.933-27.259c0-15.054-12.06-27.259-26.933-27.259
		c-2.509,0-4.935,0.354-7.237,1.005c1.122,1.81,1.774,3.949,1.774,6.244C107.881,115.204,102.688,120.462,96.279,120.462z"/>
	<path display="inline" fill="#262958" d="M60.554,79.23l11.48-1.548c0.539-0.086,0.81-0.417,0.81-0.806V42.209
		c0-0.391-0.38-0.707-0.85-0.707H61.003c-0.47,0-0.851,0.316-0.851,0.707v36.247C60.152,78.846,60.083,79.23,60.554,79.23z"/>
	<path display="inline" fill="#262958" d="M149.337,80.006c-6.188-0.937-6.715-0.854-11.019-1.672
		c-4.321-0.821-6.528-2.347-9.115-5.757c-3.476-4.584-5.562-8.204-10.962-9.128c0,0-5.661-0.52-10.616-0.52
		c-4.96,0-10.622,0.52-10.622,0.52c-5.397,0.924-7.481,4.544-10.956,9.128c-2.59,3.41-4.798,4.936-9.118,5.757
		c-4.303,0.819-16.886,2.229-23.376,3.762c-6.572,1.551-10.321,5.499-10.321,13.396v51.983c0,9.191,3.588,12.826,12.614,12.826
		h7.252v-53.173c0-0.414,0.332-0.752,0.743-0.752c0.41,0,0.742,0.338,0.742,0.752v53.173h37.568
		c-13.442-5.019-23.029-18.101-23.029-33.45c0-19.686,15.766-35.643,35.218-35.643c19.451,0,35.219,15.957,35.219,35.643
		c0,15.35-9.585,28.432-23.029,33.45h22.807c9.026,0,10.333-3.635,10.333-12.826V89.3C159.67,81.404,156.009,81.016,149.337,80.006z
		"/>
	<circle display="inline" fill="#262958" cx="65.635" cy="34.234" r="3.539"/>
	<circle display="inline" fill="#262958" cx="70.278" cy="26.627" r="6.659"/>
	<circle display="inline" fill="#262958" cx="70.666" cy="30.843" r="3.845"/>
	<circle display="inline" fill="#262958" cx="76.102" cy="23.125" r="5.259"/>
	<circle display="inline" fill="#262958" cx="81.519" cy="20.659" r="3.979"/>
	<circle display="inline" fill="#262958" cx="91.405" cy="17.607" r="5.636"/>
	<circle display="inline" fill="#262958" cx="78.442" cy="17.99" r="2.701"/>
	<circle display="inline" fill="#262958" cx="91.12" cy="21.316" r="10.663"/>
	<circle display="inline" fill="#262958" cx="80.589" cy="27.976" r="4.92"/>
	<path display="inline" fill="#262958" d="M97.168,16.49c0.442-4.711,4.618-8.173,9.329-7.733c4.71,0.442,8.172,4.617,7.731,9.328
		c-0.438,4.712-4.615,8.173-9.327,7.733C100.189,25.378,96.728,21.202,97.168,16.49z"/>
	<circle display="inline" fill="#262958" cx="98.833" cy="10.813" r="7.438"/>
	<circle display="inline" fill="#262958" cx="88.713" cy="14.177" r="6.465"/>
	<circle display="inline" fill="#262958" cx="80.382" cy="18.553" r="5.132"/>
	<circle display="inline" fill="#262958" cx="110.214" cy="7.573" r="6.106"/>
	<circle display="inline" fill="#262958" cx="116.855" cy="13.695" r="6.955"/>
	<circle display="inline" fill="#262958" cx="127.894" cy="13.664" r="6.277"/>
	<circle display="inline" fill="#262958" cx="126.689" cy="6.276" r="3.503"/>
	<circle display="inline" fill="#262958" cx="98.069" cy="6.288" r="6.255"/>
	<circle display="inline" fill="#262958" cx="75.921" cy="29.373" r="2.251"/>
</g>
</svg>
