<?xml version="1.0" encoding="utf-8"?>
<!-- Generator: Adobe Illustrator 17.1.0, SVG Export Plug-In . SVG Version: 6.00 Build 0)  -->
<!DOCTYPE svg PUBLIC "-//W3C//DTD SVG 1.1//EN" "http://www.w3.org/Graphics/SVG/1.1/DTD/svg11.dtd">
<svg version="1.1" id="Layer_1" xmlns="http://www.w3.org/2000/svg" xmlns:xlink="http://www.w3.org/1999/xlink" x="0px" y="0px"
	 enable-background="new 0 0 203 203" xml:space="preserve" width="203px" height="203px">
<circle fill="none" stroke="#262958" stroke-width="12" stroke-miterlimit="10" cx="101.5" cy="101.5" r="95.5"/>
<path fill="#262958" d="M96.3,124.5c-2.9,0-5.5-1.1-7.5-2.8c-1.5,3.4-2.3,7.1-2.3,11.1c0,15.1,12.1,27.3,26.9,27.3
	s26.9-12.2,26.9-27.3c0-15.1-12.1-27.3-26.9-27.3c-2.5,0-4.9,0.4-7.2,1c1.1,1.8,1.8,3.9,1.8,6.2C107.9,119.2,102.7,124.5,96.3,124.5
	z"/>
<path fill="#262958" d="M60.6,83.2l11.5-1.5c0.5-0.1,0.8-0.4,0.8-0.8V46.2c0-0.4-0.4-0.7-0.9-0.7h-11c-0.5,0-0.9,0.3-0.9,0.7v36.2
	C60.2,82.8,60.1,83.2,60.6,83.2z"/>
<path fill="#262958" d="M149.4,84c-6.2-0.9-6.7-0.9-11-1.7c-4.3-0.8-6.5-2.3-9.1-5.8c-3.5-4.6-5.6-8.2-11-9.1c0,0-5.7-0.5-10.6-0.5
	c-5,0-10.6,0.5-10.6,0.5c-5.4,0.9-7.5,4.5-11,9.1c-2.6,3.4-4.8,4.9-9.1,5.8c-4.3,0.8-16.9,2.2-23.4,3.8c-6.6,1.6-10.3,5.5-10.3,13.4
	v52c0,9.2,3.6,12.8,12.6,12.8h7.3v-53.2c0-0.4,0.3-0.8,0.7-0.8c0.4,0,0.7,0.3,0.7,0.8v53.2h37.6c-13.4-5-23-18.1-23-33.4
	c0-19.7,15.8-35.6,35.2-35.6c19.5,0,35.2,16,35.2,35.6c0,15.4-9.6,28.4-23,33.4h22.8c9,0,10.3-3.6,10.3-12.8V93.3
	C159.7,85.4,156.1,85,149.4,84z"/>
<circle fill="#262958" cx="65.7" cy="38.2" r="3.5"/>
<circle fill="#262958" cx="70.3" cy="30.6" r="6.7"/>
<circle fill="#262958" cx="70.7" cy="34.8" r="3.8"/>
<circle fill="#262958" cx="76.2" cy="27.1" r="5.3"/>
<circle fill="#262958" cx="81.6" cy="24.7" r="4"/>
<circle fill="#262958" cx="91.5" cy="21.6" r="5.6"/>
<circle fill="#262958" cx="78.5" cy="22" r="2.7"/>
<circle fill="#262958" cx="91.2" cy="25.3" r="10.7"/>
<circle fill="#262958" cx="80.6" cy="32" r="4.9"/>
<path fill="#262958" d="M97.2,20.5c0.4-4.7,4.6-8.2,9.3-7.7c4.7,0.4,8.2,4.6,7.7,9.3c-0.4,4.7-4.6,8.2-9.3,7.7
	C100.2,29.4,96.8,25.2,97.2,20.5z"/>
<circle fill="#262958" cx="98.9" cy="14.8" r="7.4"/>
<circle fill="#262958" cx="88.8" cy="18.2" r="6.5"/>
<circle fill="#262958" cx="80.4" cy="22.6" r="5.1"/>
<circle fill="#262958" cx="110.3" cy="11.6" r="6.1"/>
<circle fill="#262958" cx="116.9" cy="17.7" r="7"/>
<circle fill="#262958" cx="127.9" cy="17.7" r="6.3"/>
<ellipse transform="matrix(-9.320437e-02 0.9956 -0.9956 -9.320437e-02 148.8017 -113.708)" fill="#262958" cx="126.2" cy="10.9" rx="2.8" ry="3"/>
<circle fill="#262958" cx="97.3" cy="11" r="5.5"/>
<circle fill="#262958" cx="76" cy="33.4" r="2.3"/>
</svg>
