<?xml version="1.0" encoding="utf-8"?>
<!-- Generator: Adobe Illustrator 17.1.0, SVG Export Plug-In . SVG Version: 6.00 Build 0)  -->
<!DOCTYPE svg PUBLIC "-//W3C//DTD SVG 1.1//EN" "http://www.w3.org/Graphics/SVG/1.1/DTD/svg11.dtd">
<svg version="1.1" id="Layer_1" xmlns="http://www.w3.org/2000/svg" xmlns:xlink="http://www.w3.org/1999/xlink" x="0px" y="0px"
	 enable-background="new 0 0 20 20" xml:space="preserve" width="20px" height="20px">
		<path fill="#999999" d="M20,10c0-5.5-4.5-10-10-10C4.5,0,0,4.5,0,10c0,4.4,2.9,8.2,6.9,9.5c0.2-0.2,0.7-0.4,0.7-0.9
			c0-0.5,0-1.8,0-1.8s-0.4,0.1-1,0.1c-1.4,0-1.9-0.9-2.1-1.4c-0.3-0.7-0.7-1-1-1.2c-0.2-0.2-0.3-0.3,0-0.4c1.3-0.2,1.6,1.4,2.4,1.7
			c0.6,0.2,1.4,0.1,1.8-0.1c0-0.5,0.4-1,0.7-1.2c-2.2-0.2-3.4-1-4.1-2.2c0-0.1,0-0.1-0.1-0.1c-0.1-0.1-0.1-0.3-0.2-0.4
			c0,0,0-0.1,0-0.1c-0.2-0.6-0.3-1.3-0.3-2.1c0-1.4,0.4-1.9,1-2.7C4.3,5.1,4.9,4,4.9,4s0.9-0.2,2.7,1.1c1-0.4,3.5-0.4,4.7-0.1
			c0.7-0.5,2.1-1.2,2.6-1c0.2,0.2,0.5,0.9,0.2,2.5c0.2,0.3,1.2,1,1.2,3.1c0,0.7-0.1,1.4-0.2,1.9c0,0.1,0,0.1,0,0.1
			c0,0.1-0.1,0.3-0.1,0.4c0,0,0,0.1-0.1,0.1c-0.6,1.4-2,1.9-4.1,2.2c0.7,0.4,0.9,1,0.9,2.4s0,1.7,0,2c0,0.4,0.4,0.6,0.6,0.8
			C17.2,18.1,20,14.4,20,10z"/>
</svg>
