<svg xmlns="http://www.w3.org/2000/svg" fill="currentColor" viewBox="0 0 32 32">
  <path d="M16.543 25.333c1.413 0 2.729-.197 3.935-.602v-1.974c-1.086.373-2.39.57-3.705.57-4.757 0-7.826-2.663-7.826-7.354v-.011c0-4.385 2.893-7.333 7.135-7.333 4.11 0 6.686 2.554 6.686 6.631v.011c0 2.028-.559 3.255-1.425 3.255-.668 0-1.074-.668-1.074-1.885v-5.02h-2.52v1.403h-.088c-.45-1.03-1.447-1.655-2.686-1.655-2.148 0-3.748 1.896-3.748 4.593v.01c0 2.905 1.534 4.802 3.76 4.802 1.37 0 2.432-.68 3.024-1.973h.099l.131.24c.505 1.02 1.557 1.678 2.894 1.678 2.335 0 3.913-2.138 3.913-5.58v-.01c0-5.13-3.551-8.462-8.933-8.462-5.58 0-9.448 3.76-9.448 9.273v.01c0 5.81 4.022 9.383 9.876 9.383zm-.779-6.817c-1.019 0-1.655-.91-1.655-2.467v-.01c0-1.524.636-2.423 1.655-2.423 1.02 0 1.688.91 1.688 2.4v.033c0 1.535-.668 2.467-1.688 2.467z" />
</svg>
