<svg xmlns="http://www.w3.org/2000/svg" fill="currentColor" viewBox="0 0 32 32">
  <path fill-rule="evenodd" d="M16 5.333C10.107 5.333 5.333 10.107 5.333 16c0 4.72 3.054 8.707 7.294 10.12.533.093.733-.227.733-.507 0-.253-.013-1.093-.013-1.986-2.68.493-3.374-.654-3.587-1.254-.12-.306-.64-1.253-1.093-1.506-.374-.2-.907-.694-.014-.707.84-.013 1.44.773 1.64 1.093.96 1.614 2.494 1.16 3.107.88.093-.693.373-1.16.68-1.426-2.373-.267-4.853-1.187-4.853-5.267 0-1.16.413-2.12 1.093-2.867-.107-.266-.48-1.36.107-2.826 0 0 .893-.28 2.933 1.093.853-.24 1.76-.36 2.667-.36.906 0 1.813.12 2.666.36 2.04-1.387 2.934-1.093 2.934-1.093.586 1.466.213 2.56.106 2.826.68.747 1.094 1.694 1.094 2.867 0 4.093-2.494 5-4.867 5.267.387.333.72.973.72 1.973 0 1.427-.013 2.573-.013 2.933 0 .28.2.614.733.507A10.684 10.684 0 0026.667 16c0-5.893-4.774-10.667-10.667-10.667z" clip-rule="evenodd" />
</svg>
