<?xml version="1.0" encoding="utf-8"?>
<!-- Generator: Adobe Illustrator 17.1.0, SVG Export Plug-In . SVG Version: 6.00 Build 0)  -->
<!DOCTYPE svg PUBLIC "-//W3C//DTD SVG 1.1//EN" "http://www.w3.org/Graphics/SVG/1.1/DTD/svg11.dtd">
<svg version="1.1" id="Layer_1" xmlns="http://www.w3.org/2000/svg" xmlns:xlink="http://www.w3.org/1999/xlink" x="0px" y="0px"
	 enable-background="new 0 0 20 20" xml:space="preserve" width="20px" height="20px">
	<path fill="#999999" d="M2.6,0h14.9C18.8,0,20,1.2,20,2.6v14.9c0,1.4-1.2,2.6-2.6,2.6H2.6C1.2,20,0,18.8,0,17.4V2.6
		C0,1.2,1.2,0,2.6,0L2.6,0z M14.6,2.2c-0.5,0-0.9,0.4-0.9,0.9v2.2c0,0.5,0.4,0.9,0.9,0.9h2.3c0.5,0,0.9-0.4,0.9-0.9V3.1
		c0-0.5-0.4-0.9-0.9-0.9L14.6,2.2L14.6,2.2z M17.7,8.5H16c0.2,0.5,0.3,1.1,0.3,1.7c0,3.3-2.8,6-6.2,6s-6.2-2.7-6.2-6
		c0-0.6,0.1-1.2,0.3-1.7H2.2v8.4c0,0.4,0.4,0.8,0.8,0.8h13.9c0.4,0,0.8-0.4,0.8-0.8L17.7,8.5L17.7,8.5z M10,6.1c-2.2,0-4,1.7-4,3.9
		s1.8,3.9,4,3.9s4-1.7,4-3.9S12.2,6.1,10,6.1z"/>
</svg>
