<svg width="131" height="32" viewBox="0 0 131 32" fill="currentColor" xmlns="http://www.w3.org/2000/svg">
<path d="M7.90869 24.6968C6.37188 24.6968 5.17789 24.2499 4.32673 23.3561C3.49921 22.4388 3.08545 21.1569 3.08545 19.5105V11.1841H0V7.05623H7.83776V6.28005C4.66956 6.28005 3.08545 5.12753 3.08545 2.82249V2.46968H8.58253V7.05623H12.4128V11.1841H8.58253V18.1698C8.58253 18.946 8.73621 19.5458 9.04357 19.9691C9.35094 20.369 9.85927 20.5689 10.5686 20.5689H12.4128V24.6968H7.90869Z"/>
<path d="M18.3426 17.2525C18.6973 19.9338 20.0922 21.2745 22.5275 21.2745C23.3786 21.2745 24.0998 21.1099 24.6908 20.7806C25.3056 20.4278 25.7193 19.9809 25.9321 19.4399H31.3937C30.5899 21.3216 29.3959 22.7563 27.8118 23.7442C26.2277 24.7321 24.4426 25.226 22.4565 25.226C20.5887 25.226 18.9455 24.8026 17.5269 23.9559C16.1083 23.1092 15.0089 21.9802 14.2287 20.5689C13.4484 19.1341 13.0583 17.5583 13.0583 15.8412C13.0583 14.1007 13.413 12.5248 14.1223 11.1136C14.8316 9.70232 15.8955 8.58508 17.3141 7.76185C18.7327 6.93863 20.4469 6.52701 22.4565 6.52701C24.4189 6.52701 26.0976 6.95039 27.4926 7.79713C28.8875 8.62036 29.9397 9.7376 30.649 11.1488C31.3583 12.5601 31.7129 14.136 31.7129 15.8765C31.7129 16.4881 31.6893 16.9467 31.642 17.2525H18.3426ZM26.2513 14.5711C26.0149 11.8897 24.75 10.5491 22.4565 10.5491C21.2507 10.5491 20.305 10.8901 19.6193 11.5722C18.9337 12.2543 18.5081 13.254 18.3426 14.5711H26.2513Z"/>
<path d="M33.2983 24.6968V0H38.8308V24.6968H33.2983Z"/>
<path d="M45.7241 17.2525C46.0787 19.9338 47.4737 21.2745 49.9089 21.2745C50.7601 21.2745 51.4812 21.1099 52.0723 20.7806C52.687 20.4278 53.1008 19.9809 53.3136 19.4399H58.7752C57.9713 21.3216 56.7773 22.7563 55.1932 23.7442C53.6091 24.7321 51.8241 25.226 49.838 25.226C47.9702 25.226 46.327 24.8026 44.9084 23.9559C43.4898 23.1092 42.3904 21.9802 41.6101 20.5689C40.8299 19.1341 40.4398 17.5583 40.4398 15.8412C40.4398 14.1007 40.7944 12.5248 41.5037 11.1136C42.213 9.70232 43.277 8.58508 44.6956 7.76185C46.1142 6.93863 47.8283 6.52701 49.838 6.52701C51.8004 6.52701 53.4791 6.95039 54.874 7.79713C56.269 8.62036 57.3211 9.7376 58.0304 11.1488C58.7397 12.5601 59.0944 14.136 59.0944 15.8765C59.0944 16.4881 59.0707 16.9467 59.0234 17.2525H45.7241ZM53.6328 14.5711C53.3963 11.8897 52.1314 10.5491 49.838 10.5491C48.6322 10.5491 47.6865 10.8901 47.0008 11.5722C46.3152 12.2543 45.8896 13.254 45.7241 14.5711H53.6328Z"/>
<path d="M67.3472 24.6968C65.8104 24.6968 64.6164 24.2499 63.7652 23.3561C62.9377 22.4388 62.524 21.1569 62.524 19.5105V11.1841H59.4385V7.05623H67.2763V6.28005C64.1081 6.28005 62.524 5.12753 62.524 2.82249V2.46968H68.021V7.05623H71.8512V11.1841H68.021V18.1698C68.021 18.946 68.1747 19.5458 68.4821 19.9691C68.7894 20.369 69.2978 20.5689 70.0071 20.5689H71.8512V24.6968H67.3472Z"/>
<path d="M83.3846 26.4256C82.8171 27.9074 82.2615 29.0246 81.7177 29.7773C81.1976 30.5535 80.5001 31.118 79.6253 31.4708C78.7741 31.8236 77.592 32 76.0788 32H73.4189V28.1544H75.1922C75.9724 28.1544 76.5753 27.9897 77.0009 27.6604C77.4501 27.3547 77.8284 26.7078 78.1358 25.72L78.4549 24.6968L71.7875 7.05623H77.4974L79.7671 14.0419C80.5001 16.394 80.8666 18.8049 80.8666 21.2745H81.7177C81.7177 18.8284 82.0842 16.4175 82.8171 14.0419L85.1224 7.05623H90.7968L83.3846 26.4256Z"/>
<path d="M94.7453 7.05623L96.4831 11.6781H97.1214C97.4524 10.1492 98.209 8.92613 99.3912 8.00882C100.573 7.06799 101.98 6.59758 103.612 6.59758C105.125 6.59758 106.472 6.99743 107.655 7.79713C108.837 8.59684 109.759 9.70232 110.421 11.1136C111.083 12.5013 111.414 14.0537 111.414 15.7707C111.414 17.5583 111.095 19.1694 110.456 20.6042C109.842 22.039 108.943 23.168 107.761 23.9912C106.602 24.7909 105.255 25.1907 103.718 25.1907C102.299 25.1907 101.082 24.8497 100.065 24.1676C99.072 23.462 98.3627 22.5329 97.9371 21.3804H97.2988V32H91.9436V7.05623H94.7453ZM101.555 20.8864C102.95 20.8864 104.002 20.4043 104.711 19.4399C105.444 18.4756 105.81 17.2878 105.81 15.8765C105.81 14.4888 105.444 13.3128 104.711 12.3484C104.002 11.3841 102.95 10.9019 101.555 10.9019C100.16 10.9019 99.0957 11.3841 98.3627 12.3484C97.6534 13.3128 97.2988 14.4888 97.2988 15.8765C97.2988 17.2878 97.6534 18.4756 98.3627 19.4399C99.0957 20.4043 100.16 20.8864 101.555 20.8864Z"/>
<path d="M117.388 17.2525C117.743 19.9338 119.138 21.2745 121.573 21.2745C122.424 21.2745 123.145 21.1099 123.737 20.7806C124.351 20.4278 124.765 19.9809 124.978 19.4399H130.439C129.636 21.3216 128.442 22.7563 126.857 23.7442C125.273 24.7321 123.488 25.226 121.502 25.226C119.634 25.226 117.991 24.8026 116.573 23.9559C115.154 23.1092 114.055 21.9802 113.274 20.5689C112.494 19.1341 112.104 17.5583 112.104 15.8412C112.104 14.1007 112.459 12.5248 113.168 11.1136C113.877 9.70232 114.941 8.58508 116.36 7.76185C117.778 6.93863 119.493 6.52701 121.502 6.52701C123.465 6.52701 125.143 6.95039 126.538 7.79713C127.933 8.62036 128.985 9.7376 129.695 11.1488C130.404 12.5601 130.759 14.136 130.759 15.8765C130.759 16.4881 130.735 16.9467 130.688 17.2525H117.388ZM125.297 14.5711C125.061 11.8897 123.796 10.5491 121.502 10.5491C120.296 10.5491 119.351 10.8901 118.665 11.5722C117.979 12.2543 117.554 13.254 117.388 14.5711H125.297Z"/>
</svg>
