<svg xmlns="http://www.w3.org/2000/svg" width="168" height="32" fill="currentColor" viewBox="0 0 168 32">
  <path d="M0 2.576v4.22h6.735v10.36c0 4.604 2.737 5.563 6.736 5.563 2.525 0 3.578-.384 3.578-.384v-4.028s-.631.191-1.894.191c-1.895 0-2.526-.575-2.526-2.302v-9.4h7.156v-4.22H0Zm19.348 9.975c0 5.832 3.578 10.552 10.945 10.552 9.05 0 10.313-7.099 10.313-7.099h-5.893s-.632 3.07-4.21 3.07c-3.536 0-4.967-2.302-5.22-5.372h15.492s.042-.69.042-1.15C40.817 6.718 37.49 2 30.293 2c-7.199 0-10.945 4.72-10.945 10.551ZM30.293 6.03c2.904 0 4.083 1.765 4.462 4.22h-9.303c.505-2.455 1.936-4.22 4.84-4.22Zm28.196 12.277H47.754V2.576h-5.893v19.951h16.628v-4.22Zm-.661-5.756c0 5.832 3.578 10.552 10.945 10.552 9.05 0 10.313-7.099 10.313-7.099h-5.893s-.632 3.07-4.21 3.07c-3.536 0-4.967-2.302-5.22-5.372h15.492s.042-.69.042-1.15C79.297 6.718 75.97 2 68.773 2c-7.199 0-10.945 4.72-10.945 10.551ZM68.773 6.03c2.904 0 4.083 1.765 4.462 4.22h-9.303c.505-2.455 1.936-4.22 4.84-4.22Zm9.873-3.454v4.22h6.735v10.36c0 4.604 2.736 5.563 6.735 5.563 2.526 0 3.579-.384 3.579-.384v-4.028s-.632.191-1.895.191c-1.894 0-2.525-.575-2.525-2.302v-9.4h7.156v-4.22H78.646Zm42.306 0h-6.314l-4.336 13.16-5.346-13.16h-6.315l8.841 19.951c-.842 1.842-1.684 2.878-3.789 2.878-1.473 0-2.736-.384-2.736-.384v4.412s1.683.576 3.788.576c4.42 0 6.694-2.34 8.419-6.906l7.788-20.527Zm.623 26.857h5.894v-9.016h.21s1.895 2.686 6.525 2.686c6.315 0 9.472-4.988 9.472-10.552 0-5.563-3.157-10.551-9.472-10.551-4.841 0-6.735 3.261-6.735 3.261h-.211V2.576h-5.683v26.857Zm5.683-16.882c0-3.606 1.684-6.522 5.262-6.522 3.579 0 5.262 2.916 5.262 6.522 0 3.607-1.683 6.523-5.262 6.523-3.578 0-5.262-2.916-5.262-6.523Zm17.273 0c0 5.832 3.578 10.552 10.945 10.552 9.051 0 10.314-7.099 10.314-7.099h-5.894s-.631 3.07-4.21 3.07c-3.536 0-4.967-2.302-5.219-5.372h15.491s.042-.69.042-1.15C166 6.718 162.674 2 155.476 2c-7.198 0-10.945 4.72-10.945 10.551Zm10.945-6.522c2.905 0 4.083 1.765 4.462 4.22h-9.303c.505-2.455 1.936-4.22 4.841-4.22Z" />
</svg>
