<svg width="55" height="55" viewBox="0 0 55 55" fill="none" xmlns="http://www.w3.org/2000/svg">
<path d="M0 27.5C0 15.4459 0 9.41884 3.32919 5.36223C3.93864 4.6196 4.6196 3.93864 5.36223 3.32919C9.41884 0 15.4459 0 27.5 0C39.5542 0 45.5811 0 49.6377 3.32919C50.3804 3.93864 51.0613 4.6196 51.6708 5.36223C55 9.41884 55 15.4459 55 27.5C55 39.5542 55 45.5811 51.6708 49.6377C51.0613 50.3804 50.3804 51.0613 49.6377 51.6708C45.5811 55 39.5542 55 27.5 55C15.4459 55 9.41884 55 5.36223 51.6708C4.6196 51.0613 3.93864 50.3804 3.32919 49.6377C0 45.5811 0 39.5542 0 27.5Z" fill="url(#paint0_linear_6_244)"/>
<path fill-rule="evenodd" clip-rule="evenodd" d="M40.3333 27.5L14.6667 42.1666V27.5L40.3333 12.8333V27.5Z" fill="white"/>
<defs>
<linearGradient id="paint0_linear_6_244" x1="-93.5" y1="152.167" x2="55" y2="5.46375e-08" gradientUnits="userSpaceOnUse">
<stop stop-color="#0057FF"/>
<stop offset="1" stop-color="#00B2FF"/>
</linearGradient>
</defs>
</svg>
