<?xml version="1.0" encoding="utf-8"?>
<!-- Generator: Adobe Illustrator 16.0.0, SVG Export Plug-In . SVG Version: 6.00 Build 0)  -->
<!DOCTYPE svg PUBLIC "-//W3C//DTD SVG 1.1//EN" "http://www.w3.org/Graphics/SVG/1.1/DTD/svg11.dtd">
<svg version="1.1" xmlns="http://www.w3.org/2000/svg" xmlns:xlink="http://www.w3.org/1999/xlink" x="0px" y="0px"
	 width="131.733px" height="131.735px" viewBox="0 0 131.733 131.735" enable-background="new 0 0 131.733 131.735"
	 xml:space="preserve">
<g id="Слой_3" display="none">
	<path display="inline" fill="#999999" d="M114.825,0.018H16.908C7.609,0.018,0,7.627,0,16.926v97.92
		c0,9.299,7.609,16.908,16.908,16.908h50.099V82.092H53.876V64.201h13.131V48.926c0-11.996,7.759-23.025,25.633-23.025
		c7.237,0,12.591,0.696,12.591,0.696l-0.423,16.698c0,0-5.454-0.049-11.411-0.049c-6.443,0-7.482,2.975-7.482,7.904v13.051h19.411
		l-0.847,17.891H85.915v49.662h28.91c9.301,0,16.908-7.609,16.908-16.908v-97.92C131.733,7.627,124.126,0.018,114.825,0.018z"/>
</g>
<g id="Слой_1">
	<g>
		<path fill="none" d="M83.859,62.994v-0.387c3.131-1.32,5.592-3.363,7.363-6.145c1.793-2.783,2.688-5.947,2.688-9.516
			c0-3.084-0.654-5.799-1.947-8.158c-1.285-2.344-3.246-4.24-5.863-5.646c-2.408-1.308-5.006-2.162-7.771-2.561
			c-2.766-0.422-6.834-0.621-12.193-0.621H40.318v73.072h29.248c5.074,0,9.242-0.455,12.527-1.377
			c3.305-0.922,6.324-2.447,9.064-4.604c2.33-1.811,4.167-4.07,5.544-6.816c1.377-2.754,2.064-5.947,2.064-9.584
			c0-4.961-1.363-8.908-4.078-11.844C91.982,65.877,88.365,63.949,83.859,62.994z M58.576,43.359h1.275
			c3.266,0,5.73,0.02,7.387,0.068c1.658,0.053,3.084,0.334,4.289,0.873c1.295,0.553,2.23,1.459,2.826,2.695
			c0.611,1.24,0.91,2.447,0.91,3.637c0,1.59-0.285,2.999-0.844,4.223c-0.547,1.205-1.572,2.159-3.027,2.848
			c-1.34,0.617-2.648,0.954-3.902,1.02c-1.258,0.068-3.469,0.1-6.602,0.1h-2.313V43.359z M78.716,85.041
			c-0.779,1.391-1.98,2.441-3.654,3.169c-1.891,0.817-3.77,1.253-5.594,1.317c-1.828,0.072-5.131,0.105-9.902,0.105h-0.99V71.334
			h3.387c3.266,0,5.879,0.02,7.824,0.072c1.941,0.045,3.477,0.279,4.586,0.721c1.824,0.649,3.201,1.604,4.123,2.896
			c0.922,1.271,1.371,3.031,1.371,5.291C79.867,82.074,79.484,83.652,78.716,85.041z"/>
		<g>
			<path fill="none" d="M83.859,62.994v-0.387c3.131-1.32,5.592-3.363,7.363-6.145c1.793-2.783,2.688-5.947,2.688-9.516
				c0-3.084-0.654-5.799-1.947-8.158c-1.285-2.344-3.246-4.24-5.863-5.646c-2.408-1.308-5.006-2.162-7.771-2.561
				c-2.766-0.422-6.834-0.621-12.193-0.621H40.318v73.072h29.248c5.074,0,9.242-0.455,12.527-1.377
				c3.305-0.922,6.324-2.447,9.064-4.604c2.33-1.811,4.167-4.07,5.544-6.816c1.377-2.754,2.064-5.947,2.064-9.584
				c0-4.961-1.363-8.908-4.078-11.844C91.982,65.877,88.365,63.949,83.859,62.994z M58.576,43.359h1.275
				c3.266,0,5.73,0.02,7.387,0.068c1.658,0.053,3.084,0.334,4.289,0.873c1.295,0.553,2.23,1.459,2.826,2.695
				c0.611,1.24,0.91,2.447,0.91,3.637c0,1.59-0.285,2.999-0.844,4.223c-0.547,1.205-1.572,2.159-3.027,2.848
				c-1.34,0.617-2.648,0.954-3.902,1.02c-1.258,0.068-3.469,0.1-6.602,0.1h-2.313V43.359z M78.716,85.041
				c-0.779,1.391-1.98,2.441-3.654,3.169c-1.891,0.817-3.77,1.253-5.594,1.317c-1.828,0.072-5.131,0.105-9.902,0.105h-0.99V71.334
				h3.387c3.266,0,5.879,0.02,7.824,0.072c1.941,0.045,3.477,0.279,4.586,0.721c1.824,0.649,3.201,1.604,4.123,2.896
				c0.922,1.271,1.371,3.031,1.371,5.291C79.867,82.074,79.484,83.652,78.716,85.041z"/>
			<path fill="#999999" d="M114.825,0H16.908C7.609,0,0,7.608,0,16.908v97.919c0,9.3,7.609,16.908,16.908,16.908h97.917
				c9.301,0,16.908-7.608,16.908-16.908V16.908C131.733,7.608,124.126,0,114.825,0z M96.702,90.236
				c-1.377,2.746-3.214,5.006-5.544,6.816c-2.74,2.156-5.76,3.682-9.064,4.604c-3.285,0.922-7.453,1.377-12.527,1.377H40.318V29.961
				h25.816c5.359,0,9.428,0.199,12.193,0.621c2.766,0.398,5.363,1.253,7.771,2.561c2.617,1.406,4.578,3.303,5.863,5.646
				c1.293,2.359,1.947,5.074,1.947,8.158c0,3.568-0.895,6.732-2.688,9.516c-1.771,2.781-4.232,4.824-7.363,6.145v0.387
				c4.506,0.955,8.123,2.883,10.83,5.814c2.715,2.936,4.078,6.883,4.078,11.844C98.767,84.289,98.079,87.482,96.702,90.236z"/>
			<path fill="#999999" d="M67.49,58.723c1.254-0.065,2.563-0.402,3.902-1.02c1.455-0.688,2.48-1.643,3.027-2.848
				c0.559-1.224,0.844-2.633,0.844-4.223c0-1.189-0.299-2.396-0.91-3.637c-0.596-1.236-1.531-2.143-2.826-2.695
				c-1.205-0.539-2.631-0.82-4.289-0.873c-1.656-0.049-4.121-0.068-7.387-0.068h-1.275v15.463h2.313
				C64.021,58.822,66.232,58.791,67.49,58.723z"/>
			<path fill="#999999" d="M74.373,72.127c-1.109-0.441-2.645-0.676-4.586-0.721c-1.945-0.053-4.559-0.072-7.824-0.072h-3.387
				v18.299h0.99c4.771,0,8.074-0.033,9.902-0.105c1.824-0.064,3.703-0.5,5.594-1.317c1.674-0.728,2.875-1.778,3.654-3.169
				c0.768-1.389,1.15-2.967,1.15-4.727c0-2.26-0.449-4.02-1.371-5.291C77.574,73.73,76.197,72.776,74.373,72.127z"/>
		</g>
	</g>
</g>
<g id="Слой_2" display="none">
	<path display="inline" fill-rule="evenodd" clip-rule="evenodd" fill="#999999" d="M16.908,0h97.917
		c9.3,0,16.908,7.608,16.908,16.908v97.919c0,9.3-7.608,16.908-16.908,16.908H16.908c-9.3,0-16.909-7.608-16.909-16.908V16.908
		C-0.001,7.608,7.608,0,16.908,0L16.908,0z M95.963,14.637c-3.263,0-5.93,2.668-5.93,5.931v14.195c0,3.263,2.667,5.932,5.93,5.932
		h14.89c3.262,0,5.931-2.669,5.931-5.932V20.567c0-3.263-2.669-5.931-5.931-5.931H95.963L95.963,14.637z M116.846,55.71h-11.597
		c1.098,3.583,1.69,7.376,1.69,11.303c0,21.912-18.334,39.674-40.948,39.674c-22.614,0-40.946-17.762-40.946-39.674
		c0-3.927,0.592-7.72,1.689-11.303H14.636v55.647c0,2.879,2.356,5.236,5.237,5.236h91.736c2.88,0,5.237-2.357,5.237-5.236V55.71
		L116.846,55.71z M65.991,39.946c-14.611,0-26.457,11.478-26.457,25.636S51.38,91.217,65.991,91.217
		c14.612,0,26.458-11.477,26.458-25.635S80.604,39.946,65.991,39.946z"/>
</g>
<g id="Слой_4" display="none">
	<g display="inline">
		<path fill="#999999" d="M131.669,67.45c0-36.342-29.461-65.803-65.803-65.803c-36.341,0-65.803,29.461-65.803,65.803
			c0,29.235,19.072,54.005,45.448,62.579c1.423-1.303,4.505-2.634,4.505-5.607c0-3.35-0.072-11.97-0.072-11.97
			s-2.629,0.45-6.383,0.45c-9.457,0-12.447-6.033-13.871-9.411c-1.853-4.399-4.254-6.464-6.805-8.114
			c-1.568-1.017-1.928-2.211-0.115-2.553c8.371-1.576,10.511,9.492,16.101,11.258c3.99,1.26,9.121,0.715,11.672-0.937
			c0.337-3.38,2.774-6.304,4.804-7.845c-14.217-1.365-22.648-6.305-27.02-14.242c-0.227-0.384-0.302-0.524-0.468-0.888
			c-0.405-0.814-0.771-1.655-1.099-2.522c-0.109-0.285-0.213-0.566-0.324-0.904c-1.369-4.028-1.975-8.643-1.975-13.796
			c0-9.153,2.852-12.604,6.68-17.483c-2.927-10.433,1.051-17.563,1.051-17.563s6.154-1.276,17.788,7.056
			c6.305-2.702,23.117-2.929,31.073-0.601c4.879-3.228,13.81-7.805,17.412-6.523c0.977,1.57,3.078,6.148,1.275,16.205
			c1.225,2.207,7.582,6.905,7.605,20.19c-0.102,4.899-0.613,9.036-1.557,12.533c-0.102,0.366-0.174,0.639-0.26,0.904
			c-0.268,0.886-0.566,1.729-0.895,2.533c-0.139,0.309-0.268,0.635-0.383,0.89c-4.221,9.266-12.872,12.723-26.853,14.162
			c4.53,2.853,5.831,6.429,5.831,16.111s-0.13,10.982-0.099,13.21c0.032,2.439,2.423,4.026,3.954,5.164
			C113.011,120.906,131.669,96.365,131.669,67.45z"/>
	</g>
</g>
</svg>
