<?xml version="1.0" encoding="utf-8"?>
<!-- Generator: Adobe Illustrator 17.1.0, SVG Export Plug-In . SVG Version: 6.00 Build 0)  -->
<!DOCTYPE svg PUBLIC "-//W3C//DTD SVG 1.1//EN" "http://www.w3.org/Graphics/SVG/1.1/DTD/svg11.dtd">
<svg version="1.1" id="Layer_1" xmlns="http://www.w3.org/2000/svg" xmlns:xlink="http://www.w3.org/1999/xlink" x="0px" y="0px"
	 enable-background="new 0 0 20 20" xml:space="preserve" width="20px" height="20px">
<path fill="none" d="M12.7,9.6L12.7,9.6c0.5-0.3,0.9-0.6,1.1-1c0.3-0.4,0.4-0.9,0.4-1.4c0-0.5-0.1-0.9-0.3-1.2
	c-0.2-0.3-0.5-0.6-0.9-0.9c-0.4-0.2-0.8-0.3-1.2-0.4c-0.4-0.1-1-0.1-1.9-0.1H6.1v11.1h4.4c0.8,0,1.4-0.1,1.9-0.2
	c0.5-0.1,1-0.4,1.4-0.7c0.3-0.3,0.6-0.6,0.8-1c0.2-0.4,0.3-0.9,0.3-1.5c0-0.8-0.2-1.4-0.6-1.8C14,10,13.4,9.7,12.7,9.6z M8.9,6.6
	h0.2c0.5,0,0.9,0,1.1,0c0.3,0,0.5,0,0.7,0.1c0.2,0.1,0.3,0.2,0.4,0.4c0.1,0.2,0.1,0.4,0.1,0.5c0,0.2,0,0.5-0.1,0.6
	c-0.1,0.2-0.2,0.3-0.5,0.4c-0.2,0.1-0.4,0.2-0.6,0.2c-0.2,0-0.5,0-1,0H8.9L8.9,6.6L8.9,6.6z M12,12.9c-0.1,0.2-0.3,0.4-0.6,0.5
	c-0.3,0.1-0.6,0.2-0.9,0.2c-0.3,0-0.8,0-1.5,0H8.9v-2.8h0.5c0.5,0,0.9,0,1.2,0c0.3,0,0.5,0,0.7,0.1c0.3,0.1,0.5,0.2,0.6,0.4
	c0.1,0.2,0.2,0.5,0.2,0.8C12.1,12.5,12.1,12.7,12,12.9z"/>
	<path fill="none" d="M12.7,9.6L12.7,9.6c0.5-0.3,0.9-0.6,1.1-1c0.3-0.4,0.4-0.9,0.4-1.4c0-0.5-0.1-0.9-0.3-1.2
		c-0.2-0.3-0.5-0.6-0.9-0.9c-0.4-0.2-0.8-0.3-1.2-0.4c-0.4-0.1-1-0.1-1.9-0.1H6.1v11.1h4.4c0.8,0,1.4-0.1,1.9-0.2
		c0.5-0.1,1-0.4,1.4-0.7c0.3-0.3,0.6-0.6,0.8-1c0.2-0.4,0.3-0.9,0.3-1.5c0-0.8-0.2-1.4-0.6-1.8C14,10,13.4,9.7,12.7,9.6z M8.9,6.6
		h0.2c0.5,0,0.9,0,1.1,0c0.3,0,0.5,0,0.7,0.1c0.2,0.1,0.3,0.2,0.4,0.4c0.1,0.2,0.1,0.4,0.1,0.5c0,0.2,0,0.5-0.1,0.6
		c-0.1,0.2-0.2,0.3-0.5,0.4c-0.2,0.1-0.4,0.2-0.6,0.2c-0.2,0-0.5,0-1,0H8.9L8.9,6.6L8.9,6.6z M12,12.9c-0.1,0.2-0.3,0.4-0.6,0.5
		c-0.3,0.1-0.6,0.2-0.9,0.2c-0.3,0-0.8,0-1.5,0H8.9v-2.8h0.5c0.5,0,0.9,0,1.2,0c0.3,0,0.5,0,0.7,0.1c0.3,0.1,0.5,0.2,0.6,0.4
		c0.1,0.2,0.2,0.5,0.2,0.8C12.1,12.5,12.1,12.7,12,12.9z"/>
	<path fill="#999999" d="M17.4,0H2.6C1.2,0,0,1.2,0,2.6v14.9C0,18.8,1.2,20,2.6,20h14.9c1.4,0,2.6-1.2,2.6-2.6V2.6
		C20,1.2,18.8,0,17.4,0z M14.7,13.7c-0.2,0.4-0.5,0.8-0.8,1c-0.4,0.3-0.9,0.6-1.4,0.7c-0.5,0.1-1.1,0.2-1.9,0.2H6.1V4.6H10
		c0.8,0,1.4,0,1.9,0.1c0.4,0.1,0.8,0.2,1.2,0.4c0.4,0.2,0.7,0.5,0.9,0.9c0.2,0.4,0.3,0.8,0.3,1.2c0,0.5-0.1,1-0.4,1.4
		c-0.3,0.4-0.6,0.7-1.1,0.9v0.1c0.7,0.2,1.2,0.4,1.6,0.9c0.4,0.4,0.6,1,0.6,1.8C15,12.8,14.9,13.3,14.7,13.7z"/>
	<path fill="#999999" d="M10.3,8.9c0.2,0,0.4-0.1,0.6-0.2c0.2-0.1,0.4-0.2,0.5-0.4c0.1-0.2,0.1-0.4,0.1-0.6c0-0.2,0-0.4-0.1-0.5
		c-0.1-0.2-0.2-0.3-0.4-0.4c-0.2-0.1-0.4-0.1-0.7-0.1c-0.3,0-0.6,0-1.1,0H8.9v2.4h0.3C9.7,8.9,10.1,8.9,10.3,8.9z"/>
	<path fill="#999999" d="M11.3,10.9c-0.2-0.1-0.4-0.1-0.7-0.1c-0.3,0-0.7,0-1.2,0H8.9v2.8h0.2c0.7,0,1.2,0,1.5,0
		c0.3,0,0.6-0.1,0.9-0.2c0.3-0.1,0.4-0.3,0.6-0.5c0.1-0.2,0.2-0.5,0.2-0.7c0-0.3-0.1-0.6-0.2-0.8C11.8,11.2,11.6,11.1,11.3,10.9z"
		/>
</svg>
